<?xml version="1.0" encoding="UTF-8"?>
<svg id="Layer_1" xmlns="http://www.w3.org/2000/svg" viewBox="0 0 223.1 18.7">
  <defs>
    <style>
      .cls-1 {
        fill: #012b50;
      }
    </style>
  </defs>
  <path class="cls-1" d="M34.5,5.6c1.3,0,2.5.6,3.3,1.7V2.5c-1.1-.5-2.2-.8-3.5-.8-2,0-4.1.9-5.5,2.4-1.4,1.6-2.1,3.6-2.1,5.6,0,2.2.7,4.2,2.3,5.7,1.5,1.4,3.4,2.2,5.5,2.2,1.2,0,2.1-.3,3.3-.7v-4.7c-.8,1-2,1.6-3.3,1.6-2.4,0-3.9-1.7-3.9-4.1s1.6-4.1,3.9-4.1M22.4,17.3h3.8V2.2h-3.8v15.1ZM13.7,13.9h-.9V5.5h.9c2.4,0,4.2,1.5,4.2,4.2,0,2.9-1.9,4.2-4.2,4.2M14.5,2.2h-5.4v15.1h5.4c4,0,7.4-3.3,7.4-7.5s-3.4-7.6-7.4-7.6M0,17.2h3.8v-5.9h4.2v-3.3H3.8v-2.5h4.6v-3.3H0v15h0Z"/>
  <path class="cls-1" d="M141.5,18.6c.4,0,.8-.4.8-.8,0-.3-.2-.6-.5-.6-.4,0-.8.4-.8.8,0,.3.2.6.5.6M132.2,18.6c.4,0,.8-.4.8-.8,0-.3-.2-.6-.5-.6-.4,0-.8.4-.8.8,0,.3.2.6.5.6M88.3,11.7c.4,0,.7-.3.7-.7,0-.3-.3-.5-.6-.5-.4,0-.7.3-.7.7,0,.3.3.5.6.5M215.8,8.4c.4,0,.8-.1,1.1-.2l-.2-.6c-.2.1-.4.2-.6.2-.5,0-.7-.2-.7-.7v-.4l.6-3.2h1.4l.1-.7h-1.4l.3-1.5h-.7l-.4,1.5-.9.1-.1.7h.8l-.6,3.1c0,.2-.1.4-.1.6,0,.6.4,1.1,1.4,1.1M213,1.6c.4,0,.7-.3.7-.7,0-.3-.3-.5-.6-.5-.4,0-.7.3-.7.7,0,.3.3.5.6.5M211.1,8.3h.9l1.1-5.6h-.9l-1.1,5.6h0ZM201.8,3.4h.7l-1,4.9h.9l1-4.8h1.1l.1-.7h-1.1l.2-.9c.1-.7.4-1.1.9-1.1.3,0,.5.1.6.2l.3-.6c-.3-.2-.6-.3-1-.3-.9,0-1.5.7-1.8,1.8l-.2.9-.7.1v.5h0ZM197.3,8.4c.2,0,.4,0,.6-.1v-.7h-.2c-.1,0-.2-.1-.2-.2v-.2l1.4-7.1h-.9l-1.4,7.1c-.1.2-.1.4-.1.5,0,.4.3.7.8.7M194.3,8.4c.2,0,.4,0,.6-.1v-.7h-.2c-.1,0-.2-.1-.2-.2v-.2l1.4-7.1h-.9l-1.4,7.1c-.1.2-.1.4-.1.5.1.4.3.7.8.7M184.1,3.4h.7l-1,4.8h.9l1-4.8h1.1l.1-.7h-1.1l.2-.9c.1-.7.4-1.1.9-1.1.3,0,.5.1.6.2l.3-.6c-.3-.2-.6-.3-1-.3-.9,0-1.5.7-1.8,1.8l-.2.9-.7.1v.6h0ZM70.3,8.3h.9l1.5-7.5h-.9l-1.5,7.5ZM57.2,8.3h.9l1.5-7.5h-.9l-1.5,7.5ZM51.2,7.5l1.2-6.1h.6c1.5,0,2.3.8,2.3,2.3,0,2.2-1.2,3.8-3.2,3.8h-.9ZM50.2,8.3h2c2.5,0,4.1-1.9,4.1-4.6,0-1.8-1.1-2.9-3.2-2.9h-1.4l-1.5,7.5h0ZM203.5,18.6c.4,0,.8-.1,1-.2l-.2-.6c-.2.1-.4.2-.6.2-.5,0-.7-.2-.7-.7v-.4l.6-3.2h1.4l.1-.7h-1.4l.3-1.5h-.7l-.4,1.5-.9.1-.1.7h.8l-.6,3.1c0,.2-.1.4-.1.6.1.5.5,1.1,1.5,1.1M195.6,18.4h.9l.8-3.9c.7-.7,1.2-1,1.7-1,.6,0,.8.3.8.9,0,.2,0,.3-.1.7l-.7,3.4h.9l.7-3.6c.1-.3.1-.5.1-.8,0-.9-.4-1.4-1.3-1.4-.7,0-1.3.4-2,1h0l.1-.8h-.8l-1.1,5.5h0ZM190.9,15.2c.3-1.1,1.1-1.8,1.9-1.8s1.1.6,1.1,1.2c0,.2,0,.4-.1.6h-2.9ZM189.9,16.2c0,1.5.9,2.3,2.2,2.3.7,0,1.4-.3,1.8-.6l-.3-.6c-.4.3-.8.5-1.2.5-1,0-1.7-.6-1.5-2h3.6c.1-.2.2-.6.2-1.1,0-1.2-.5-2-1.7-2-1.6,0-3.1,1.5-3.1,3.5M180.4,18.4h.9l.8-3.9c.6-.7,1.2-1,1.6-1,.5,0,.8.3.8.9,0,.2,0,.3-.1.7l-.7,3.4h.9l.8-3.9c.7-.7,1.2-1,1.6-1,.5,0,.8.3.8.9,0,.2,0,.3-.1.7l-.7,3.4h.9l.7-3.6c.1-.3.1-.5.1-.8,0-.9-.4-1.4-1.3-1.4-.6,0-1.3.4-2,1.1-.1-.6-.4-1.1-1.3-1.1-.6,0-1.2.4-1.8,1h0l.1-.8h-.7l-1.3,5.4h0ZM174.3,18.4h.9l.8-3.9c.7-.7,1.2-1,1.7-1,.6,0,.8.3.8.9,0,.2,0,.3-.1.7l-.7,3.4h.9l.7-3.6c.1-.3.1-.5.1-.8,0-.9-.4-1.4-1.3-1.4-.7,0-1.3.4-1.9,1h0l.1-.8h-.7l-1.3,5.5h0ZM170.1,18.4h.9l.7-3.5c.5-.9,1.1-1.4,1.6-1.4.2,0,.4,0,.5.1l.3-.8c-.2-.1-.3-.1-.5-.1-.7,0-1.3.5-1.7,1.2h0l.1-1.1h-.7l-1.2,5.6h0ZM165.4,15.2c.3-1.1,1.1-1.8,1.9-1.8s1.1.6,1.1,1.2c0,.2,0,.4-.1.6h-2.9ZM164.4,16.3c0,1.5.9,2.3,2.2,2.3.7,0,1.4-.3,1.8-.6l-.3-.6c-.4.3-.8.5-1.2.5-1,0-1.7-.6-1.5-2h3.6c.1-.2.2-.6.2-1.1,0-1.2-.5-2-1.7-2-1.5-.1-3.1,1.4-3.1,3.5M160.2,18.4h1l3-5.6h-.9l-1.6,3.3c-.3.6-.6,1.1-.8,1.7h0c-.1-.5-.1-1.1-.2-1.7l-.4-3.2h-.9l.8,5.5h0ZM155.2,17.9c-.8,0-1.2-.6-1.2-1.6,0-1.6,1-2.8,2-2.8.8,0,1.2.6,1.2,1.6,0,1.5-1,2.8-2,2.8M155.1,18.6c1.5,0,3-1.5,3-3.6,0-1.4-.8-2.2-2-2.2-1.5,0-3,1.5-3,3.6,0,1.3.8,2.2,2,2.2M149.1,18.6c.9,0,1.6-.3,2.1-.8l.6-3.2h-2.4l-.1.7h1.5l-.4,2.1c-.3.2-.7.5-1.3.5-1.4,0-2-1-2-2.4,0-1.8,1.1-3.9,3-3.9.6,0,1,.3,1.3.8l.6-.5c-.4-.6-1-1.1-1.9-1.1-2.5,0-4,2.4-4,4.8.2,1.8,1.2,3,3,3M137.1,18.6c1.5,0,2.6-1,2.6-2.3,0-.8-.4-1.3-1.1-1.8l-.9-.5c-.5-.3-1-.6-1-1.2s.5-1.2,1.4-1.2c.7,0,1.2.3,1.6.8l.6-.5c-.5-.6-1.2-1-2.1-1-1.4,0-2.3,1-2.3,2.1,0,.8.5,1.4,1.1,1.8l.9.5c.6.3.9.7.9,1.2,0,.9-.7,1.4-1.6,1.4-.8,0-1.5-.4-1.9-1.1l-.6.5c.5.8,1.4,1.3,2.4,1.3M125.2,15.2c-.1.4-.1.7-.1,1.1,0,1.6.8,2.4,2.4,2.4,1.3,0,2.4-.8,2.8-3l.9-4.6h-.9l-.9,4.4c-.3,1.6-1,2.3-1.9,2.3-1,0-1.5-.6-1.5-1.7,0-.3,0-.6.1-.9l.9-4.3h-.9l-.9,4.3h0ZM117.9,15.3c.3-1.1,1.1-1.8,1.9-1.8s1.1.6,1.1,1.2c0,.2,0,.4-.1.6h-2.9ZM117,16.3c0,1.5.9,2.3,2.2,2.3.7,0,1.4-.3,1.8-.6l-.3-.6c-.4.3-.8.5-1.2.5-1,0-1.7-.6-1.5-2h3.6c.1-.2.2-.6.2-1.1,0-1.2-.5-2-1.7-2-1.6,0-3.1,1.4-3.1,3.5M110.7,18.5h.9l.8-3.9c.7-.7,1.2-1,1.7-1,.6,0,.8.3.8.9,0,.2,0,.3-.1.7l-.7,3.4h.9l.7-3.6c.1-.3.1-.5.1-.8,0-.9-.4-1.4-1.3-1.4-.7,0-1.3.4-1.9.9h0l.2-.7.5-2.7h-.9l-1.7,8.2h0ZM108.5,18.6c.4,0,.8-.1,1-.2l-.2-.6c-.2.1-.4.2-.6.2-.5,0-.7-.2-.7-.7v-.4l.6-3.2h1.4l.1-.7h-1.4l.3-1.5h-.7l-.4,1.5-.9.1-.1.7h.8l-.6,3.1c0,.2-.1.4-.1.6.1.5.5,1.1,1.5,1.1M101.7,13.6h.7l-1,4.9h.9l1-4.8h1.1l.1-.7h-1.1l.2-.9c.1-.7.4-1.1.9-1.1.3,0,.5.1.6.2l.3-.6c-.3-.2-.6-.3-1-.3-.9,0-1.5.7-1.8,1.8l-.2.9-.7.1v.5h0ZM97.4,17.9c-.8,0-1.2-.6-1.2-1.6,0-1.6,1-2.8,2-2.8.8,0,1.2.6,1.2,1.6,0,1.5-1,2.8-2,2.8M97.3,18.6c1.5,0,3-1.5,3-3.6,0-1.4-.8-2.2-2-2.2-1.5,0-3,1.5-3,3.6,0,1.3.8,2.2,2,2.2M91.1,18.6c.4,0,.8-.1,1-.2l-.2-.6c-.2.1-.4.2-.6.2-.5,0-.7-.2-.7-.7v-.4l.6-3.2h1.4l.1-.7h-1.4l.3-1.5h-.7l-.4,1.5-.9.1-.1.7h.8l-.6,3.1c0,.2-.1.4-.1.6.1.5.5,1.1,1.5,1.1M86.4,18.4h.9l1.1-5.6h-.9l-1.1,5.6ZM82.1,17.8c-.6,0-1-.5-1-1.4,0-1.5,1-2.9,2.1-2.9.4,0,.8.2,1.1.8l-.5,2.5c-.5.7-1.1,1-1.7,1M84.6,13.5h0c-.3-.5-.8-.8-1.4-.8-1.5,0-3,1.7-3,3.8,0,1.3.6,2,1.6,2,.7,0,1.4-.4,1.9-1h0l-.1.8h.7l1.6-8.1h-.9l-.3,2.3-.1,1ZM75.4,15.2c.3-1.1,1.1-1.8,1.9-1.8s1.1.6,1.1,1.2c0,.2,0,.4-.1.6h-2.9ZM74.4,16.2c0,1.5.9,2.3,2.2,2.3.7,0,1.4-.3,1.8-.6l-.3-.6c-.4.3-.8.5-1.2.5-1,0-1.7-.6-1.5-2h3.6c.1-.2.2-.6.2-1.1,0-1.2-.5-2-1.7-2-1.6,0-3.1,1.5-3.1,3.5M70.3,18.4h.9l.7-3.5c.5-.9,1.1-1.4,1.6-1.4.2,0,.4,0,.5.1l.3-.8c-.2-.1-.3-.1-.5-.1-.7,0-1.3.5-1.7,1.2h0l.1-1.1h-.7l-1.2,5.6h0ZM67.2,18.6c.8,0,1.4-.3,1.8-.6l-.4-.6c-.3.3-.7.5-1.2.5-.9,0-1.3-.6-1.3-1.6,0-1.5,1-2.8,2.1-2.8.4,0,.7.2,1,.5l.5-.6c-.3-.4-.8-.7-1.4-.7-1.6,0-3.1,1.5-3.1,3.6,0,1.5.8,2.3,2,2.3M58.8,17.8c-.6,0-1-.5-1-1.4,0-1.5,1-2.9,2.1-2.9.4,0,.8.2,1.1.8l-.5,2.5c-.5.7-1.1,1-1.7,1M61.3,13.5h0c-.3-.5-.8-.8-1.4-.8-1.5,0-3,1.7-3,3.8,0,1.3.6,2,1.6,2,.7,0,1.4-.4,1.9-1h0l-.1.8h.7l1.6-8.1h-.9l-.3,2.3-.1,1ZM50.6,18.4h.9l.8-3.9c.7-.7,1.2-1,1.7-1,.6,0,.8.3.8.9,0,.2,0,.3-.1.7l-.7,3.4h.9l.7-3.6c.1-.3.1-.5.1-.8,0-.9-.4-1.4-1.3-1.4-.7,0-1.3.4-1.9,1h-.1l.1-.8h-.8l-1.1,5.5h0ZM46.3,17.8c-.6,0-1-.5-1-1.4,0-1.5,1-2.9,2.1-2.9.4,0,.8.2,1.1.8l-.5,2.5c-.5.7-1.2,1-1.7,1M45.9,18.6c.7,0,1.4-.4,1.9-1h0l-.1.8h.7l1.1-5.6h-.7l-.1.7h0c-.3-.5-.7-.8-1.3-.8-1.5,0-3,1.7-3,3.8-.1,1.3.6,2,1.5,2.1M218,8.3h.9l.8-3.9c.7-.7,1.2-1,1.7-1,.6,0,.8.3.8.9,0,.2,0,.3-.1.7l-.7,3.4h.9l.7-3.6c.1-.3.1-.5.1-.8,0-.9-.4-1.4-1.3-1.4-.7,0-1.3.4-1.9.9h-.1l.2-.7.6-2.7h-1l-1.6,8.2h0ZM206.8,7.7c-.6,0-1-.5-1-1.4,0-1.5,1-2.9,2.1-2.9.4,0,.8.2,1.1.8l-.4,2.4c-.6.8-1.2,1.1-1.8,1.1M206.5,8.4c.7,0,1.4-.4,1.9-1h0l-.1.8h.7l1.1-5.6h-.7l-.1.8h0c-.3-.5-.7-.8-1.3-.8-1.6,0-3,1.7-3,3.8-.1,1.3.5,2,1.5,2M192.5,2.7h-.9l-.8,3.9c-.7.7-1.2,1-1.6,1-.6,0-.8-.3-.8-.9,0-.2,0-.4.1-.6l.7-3.4h-.9l-.7,3.6c-.1.3-.1.5-.1.8,0,.8.4,1.4,1.3,1.4.7,0,1.3-.4,1.9-1h0l-.1.8h.7l1.2-5.6h0ZM177.1,5.1c.3-1.1,1.1-1.8,1.9-1.8s1.1.6,1.1,1.2c0,.2,0,.4-.1.6,0,0-2.9,0-2.9,0ZM176.1,6.1c0,1.5.9,2.3,2.2,2.3.7,0,1.4-.3,1.8-.6l-.3-.6c-.4.3-.8.5-1.2.5-1,0-1.7-.6-1.5-2h3.6c.1-.2.2-.6.2-1.1,0-1.2-.5-2-1.7-2-1.5,0-3.1,1.4-3.1,3.5M169.9,8.3h.9l.8-3.9c.7-.7,1.2-1,1.7-1,.6,0,.8.3.8.9,0,.2,0,.3-.1.7l-.7,3.4h.9l.7-3.6c.1-.3.1-.5.1-.8,0-.9-.4-1.4-1.3-1.4-.7,0-1.3.4-1.9.9h-.2l.2-.7.6-2.7h-.9l-1.6,8.2h0ZM167.6,8.4c.4,0,.8-.1,1.1-.2l-.2-.6c-.2.1-.4.2-.6.2-.5,0-.7-.2-.7-.7v-.4l.6-3.2h1.4l.1-.7h-1.4l.3-1.5h-.6l-.4,1.5-.9.1-.1.5h.8l-.6,3.1c0,.2-.1.4-.1.6,0,.8.4,1.3,1.3,1.3M158.1,10.7c1.1,0,1.7-.8,2.3-1.9l3.3-6h-.9l-1.6,3.1c-.3.5-.6,1.1-.8,1.7h0c-.1-.5-.1-1.1-.2-1.7l-.4-3.1h-.9l.9,5.6-.2.4c-.4.8-.9,1.3-1.4,1.3-.1,0-.3,0-.4-.1l-.3.6c.2,0,.5.1.6.1M155.7,3.3c.6,0,1,.5,1,1.4,0,1.5-1,3-2.1,3-.4,0-.8-.2-1.1-.8l.5-2.6c.6-.7,1.2-1,1.7-1M153.1,8.3l.2-.7h0c.3.5.7.8,1.3.8,1.5,0,3-1.7,3-3.8,0-1.3-.6-2-1.6-2-.7,0-1.3.4-1.9.8h0l.2-1.1.4-2.2h-.9l-1.6,8.1.9.1h0ZM146,7.7c-.6,0-1-.5-1-1.4,0-1.5,1-2.9,2.1-2.9.4,0,.8.2,1.1.8l-.5,2.5c-.5.6-1.1,1-1.7,1M148.5,3.4h0c-.3-.5-.8-.8-1.4-.8-1.5,0-3,1.7-3,3.8,0,1.3.6,2,1.6,2,.7,0,1.4-.4,1.9-1h0l-.1.8h.7l1.6-8.1h-.9l-.4,2.2v1.1ZM139.3,5.1c.3-1.1,1.1-1.8,1.9-1.8s1.1.6,1.1,1.2c0,.2,0,.4-.1.6,0,0-2.9,0-2.9,0ZM138.3,6.1c0,1.5.9,2.3,2.2,2.3.7,0,1.4-.3,1.8-.6l-.3-.6c-.4.3-.8.5-1.2.5-1,0-1.7-.6-1.5-2h3.6c.1-.2.2-.6.2-1.1,0-1.2-.5-2-1.7-2-1.5,0-3,1.4-3.1,3.5M132.7,8.3h.9l.3-1.4,1.3-1.3,1.1,2.7h.9l-1.3-3.2,2.2-2.3h-1l-2.9,2.9h0l1.1-5.5h-.9l-1.7,8.1h0ZM129.7,8.4c.8,0,1.4-.3,1.8-.6l-.4-.6c-.3.3-.7.5-1.2.5-.9,0-1.3-.6-1.3-1.6,0-1.5,1-2.8,2.1-2.8.4,0,.7.2,1,.5l.5-.6c-.3-.4-.8-.7-1.4-.7-1.6,0-3.1,1.5-3.1,3.6-.1,1.5.8,2.3,2,2.3M123.2,7.7c-.6,0-1-.5-1-1.4,0-1.5,1-2.9,2.1-2.9.4,0,.8.2,1.1.8l-.5,2.5c-.5.6-1.1,1-1.7,1M122.9,8.4c.7,0,1.4-.4,1.9-1h0l-.1.8h.7l1.1-5.6h-.7l-.1.8h0c-.3-.5-.7-.8-1.3-.8-1.6,0-3,1.7-3,3.8-.1,1.3.5,2,1.5,2M115.4,7.6l.6-2.9h1.3c1.1,0,1.7.5,1.7,1.3,0,1.2-.9,1.7-2.3,1.7,0-.1-1.3-.1-1.3-.1ZM116.1,4l.5-2.5h1c1.1,0,1.6.4,1.6,1.1,0,.8-.7,1.4-2.1,1.4.1,0-1,0-1,0ZM114.3,8.3h2.4c1.8,0,3.1-.7,3.1-2.4,0-.9-.6-1.3-1.4-1.5h0c.8-.2,1.7-.9,1.7-1.9,0-1.1-.9-1.7-2.3-1.7h-2s-1.5,7.5-1.5,7.5ZM108.7,5.7h2.5l.2-.7h-2.5l-.2.7ZM102.4,7.7c-.6,0-1-.5-1-1.4,0-1.5,1-2.9,2.1-2.9.4,0,.8.2,1.1.8l-.5,2.5c-.5.6-1.1,1-1.7,1M104.8,3.4h0c-.3-.5-.8-.8-1.3-.8-1.6,0-3,1.7-3,3.8,0,1.3.6,2,1.6,2,.7,0,1.4-.4,1.9-1h0l-.1.8h.7L106.3.1h-.9l-.4,2.2s-.2,1.1-.2,1.1ZM95.6,5.1c.3-1.1,1.1-1.8,1.9-1.8s1.1.6,1.1,1.2c0,.2,0,.4-.1.6.1,0-2.9,0-2.9,0ZM94.7,6.1c0,1.5.9,2.3,2.2,2.3.7,0,1.3-.3,1.8-.6l-.3-.6c-.3.3-.8.5-1.2.5-1,0-1.7-.6-1.5-2h3.6c.1-.2.2-.6.2-1.1,0-1.2-.5-2-1.7-2-1.6,0-3.1,1.4-3.1,3.5M90.5,8.3h.9l.7-3.5c.5-.9,1.1-1.4,1.6-1.4.2,0,.4,0,.5.1l.3-.8c-.2-.1-.3-.1-.5-.1-.7,0-1.3.5-1.7,1.2h0l.1-1.1h-.8l-1.1,5.6h0ZM89.6,2.7h-.9l-.8,3.9c-.7.7-1.2,1-1.7,1-.6,0-.8-.3-.8-.9,0-.2,0-.4.1-.6l.7-3.4h-.9l-.7,3.6c0,.3,0,.5,0,.7,0,.8.4,1.4,1.3,1.4.7,0,1.3-.4,1.9-1h0l-.1.8h.7l1.2-5.5h0ZM81.1,8.4c1.2,0,2.1-.7,2.1-1.7,0-.6-.3-1-1.3-1.6-.5-.3-1-.5-1-1s.5-.9,1.1-.9c.5,0,.9.2,1.2.6l.4-.5c-.4-.4-1-.7-1.6-.7-1,0-1.9.7-1.9,1.7,0,.6.4,1.1,1.3,1.5.8.4,1,.6,1,1.1s-.5.9-1.2.9c-.6,0-1.1-.3-1.4-.8l-.6.4c.4.5,1.1,1,1.9,1M73.4,8.3h.9l.8-3.9c.7-.7,1.2-1,1.7-1,.6,0,.8.3.8.9,0,.2,0,.3-.1.7l-.7,3.4h.8l.7-3.6c.1-.3.1-.5.1-.8,0-.9-.4-1.4-1.3-1.4-.7,0-1.3.4-1.9,1h0l.1-.8h-.7l-1.2,5.5h0ZM66.5,5.7h2.5l.2-.7h-2.6l-.1.7ZM63.2,8.4c.9,0,1.6-.4,2.2-.9l-.4-.6c-.5.4-1,.7-1.6.7-1.3,0-1.9-1-1.9-2.3,0-1.8,1.1-3.9,2.9-3.9.6,0,1,.3,1.3.8l.6-.5c-.4-.6-1-1.1-1.8-1.1-2.4,0-3.9,2.4-3.9,4.8,0,1.8.9,3,2.6,3M44.6,8.3h.9l.7-3.4h2.8l.2-.8h-2.8l.5-2.6h3.3l.2-.7h-4.1l-1.7,7.5h0Z"/>
</svg>