<svg width="70" height="70" viewBox="0 0 70 70" fill="none" xmlns="http://www.w3.org/2000/svg">
<g clip-path="url(#clip0_1602_7691)">
<path d="M8.75 26.25C8.75 24.7029 9.36458 23.2191 10.4585 22.1252C11.5525 21.0312 13.0362 20.4166 14.5833 20.4166H55.4167C56.9638 20.4166 58.4475 21.0312 59.5415 22.1252C60.6354 23.2191 61.25 24.7029 61.25 26.25V52.5C61.25 54.0471 60.6354 55.5308 59.5415 56.6247C58.4475 57.7187 56.9638 58.3333 55.4167 58.3333H14.5833C13.0362 58.3333 11.5525 57.7187 10.4585 56.6247C9.36458 55.5308 8.75 54.0471 8.75 52.5V26.25Z" stroke="#651D32" stroke-width="4.375" stroke-linecap="round" stroke-linejoin="round"/>
<path d="M23.3334 20.4167V14.5833C23.3334 13.0362 23.948 11.5525 25.0419 10.4585C26.1359 9.36458 27.6196 8.75 29.1667 8.75H40.8334C42.3805 8.75 43.8642 9.36458 44.9582 10.4585C46.0522 11.5525 46.6667 13.0362 46.6667 14.5833V20.4167" stroke="#651D32" stroke-width="4.375" stroke-linecap="round" stroke-linejoin="round"/>
<path d="M35 35V35.0292" stroke="#651D32" stroke-width="4.375" stroke-linecap="round" stroke-linejoin="round"/>
<path d="M8.75 37.9166C16.8921 42.0195 25.8826 44.1566 35 44.1566C44.1174 44.1566 53.1079 42.0195 61.25 37.9166" stroke="#651D32" stroke-width="4.375" stroke-linecap="round" stroke-linejoin="round"/>
</g>
<defs>
<clipPath id="clip0_1602_7691">
<rect width="70" height="70" fill="white"/>
</clipPath>
</defs>
</svg>
