<svg width="324" height="41" viewBox="0 0 324 41" fill="none" xmlns="http://www.w3.org/2000/svg">
<path d="M56.6518 16.0906L55.9835 27.8427C55.9423 28.4185 55.819 29.6317 55.819 30.4748C55.8395 32.5723 56.3845 33.5491 58.0295 33.8781L58.1426 33.8986V35.0399H58.009C56.7752 35.0399 55.5516 34.8754 54.3487 34.8754C53.1457 34.8754 51.9222 35.0399 50.6884 35.0399H50.5547V33.8986L50.6678 33.8781C52.4157 33.4874 52.8681 32.2536 53.1663 29.1176L55.2123 5.91162H56.7546L69.0619 27.8221L79.8372 5.98359L79.8783 5.91162H81.3075L83.148 30.0533C83.3125 32.0993 83.7649 33.8164 85.2968 33.8678H85.4305V35.0399H85.2968C83.8677 35.0399 82.4796 34.8754 81.071 34.8754C79.6624 34.8754 78.2744 35.0399 76.8452 35.0399H76.7116V33.8884H76.8349C78.079 33.7341 78.5314 32.5312 78.5417 31.2048C78.5417 29.9093 78.4595 29.0251 78.3772 28.4493L77.349 16.5636L68.1982 35.3073L56.6826 16.0803L56.6518 16.0906Z" fill="white"/>
<path d="M87.498 26.4965C87.498 22.6202 90.305 17.541 95.9291 17.541C100.175 17.541 103.507 20.2348 103.538 24.6252V24.7588H91.7033C91.7033 24.8925 91.693 25.0262 91.693 25.1701C91.693 28.9127 94.4485 32.1617 98.3659 32.172C99.8465 32.172 101.358 31.771 102.551 30.8971L102.653 30.8251L103.209 31.4934L100.926 34.8247H100.885C100.062 35.1332 98.7052 35.4519 96.9779 35.4519C90.3153 35.4519 87.5083 30.3727 87.498 26.4965ZM98.8697 22.867C98.8183 20.5947 97.7593 19.2169 95.23 19.1964C93.1736 19.1964 91.8267 20.8929 91.8267 22.8361V22.867H98.8697Z" fill="white"/>
<path d="M106.231 26.4965C106.231 22.6202 109.048 17.5513 115.711 17.541C117.726 17.541 119.649 17.9523 121.489 18.5589L121.571 18.5898L121.818 22.7847H121.685V22.6613V22.795H121.818V22.9287H120.482L120.451 22.8361C119.649 20.8003 118.076 19.4329 116.03 19.4329C112.4 19.4329 110.889 22.7436 110.878 26.0441C110.878 29.4062 113.274 33.1385 117.325 33.1385C119.114 33.1385 120.533 32.429 121.654 31.1952L121.705 31.1335L122.713 31.4009L121.407 34.6088L121.345 34.6293C119.71 35.1229 117.983 35.4519 115.701 35.4519C109.038 35.4519 106.231 30.3727 106.221 26.4965" fill="white"/>
<path d="M142.577 34.999C141.405 34.9168 140.233 34.8756 139.051 34.8756C137.868 34.8756 136.778 34.9579 135.637 34.999H135.493V33.9297H135.606C136.46 33.7858 137.025 33.3436 137.035 32.2229V28.8916C137.035 27.1951 136.912 25.4884 136.912 24.3368C136.902 22.301 136.398 20.0493 133.92 20.039C132.768 20.039 131.709 20.6045 130.434 21.2111V32.2229C130.445 32.9838 130.774 33.5082 132.09 33.9194L132.182 33.9503V34.999H132.049C130.743 34.999 129.396 34.8756 128.1 34.8756C127.052 34.8756 125.952 34.9579 124.893 34.999H124.759V33.9503L124.851 33.9194C125.777 33.611 126.198 33.4362 126.219 32.2229V23.0413C126.219 18.3322 126.013 12.8006 126.013 11.0527C126.044 10.1479 124.8 9.80863 123.782 9.76751H123.648V8.70848L123.751 8.68792C125.355 8.32806 128.162 7.14565 129.375 5.96325L129.417 5.92212H130.424V19.052C132.069 17.9929 134.012 17.5405 136.017 17.5405C137.323 17.5405 138.629 17.8696 139.606 18.7949C140.593 19.71 141.23 21.2111 141.23 23.4937V32.2332C141.23 32.9735 141.57 33.8166 142.577 33.9297H142.701V35.0196H142.557L142.577 34.999Z" fill="white"/>
<path d="M158.505 35.4519C157.004 35.2565 155.78 34.5265 155.225 33.5292C153.888 34.506 152.583 35.4519 150.804 35.4519C147.987 35.4519 145.18 33.704 145.18 30.5989C145.18 26.1777 149.395 24.4915 153.117 24.4915C153.734 24.4915 154.361 24.5943 154.896 24.6149C154.875 22.4454 154.69 20.2554 152.11 20.2554C150.146 20.2554 149.21 20.8723 148.203 22.3529L148.161 22.4146H147.113V22.2809V22.4146H146.979V18.3121L147.082 18.2813C148.799 17.7878 150.444 17.541 152.367 17.541C154.187 17.541 155.883 17.7775 157.148 18.5589C158.412 19.33 159.214 20.6564 159.214 22.723C159.214 24.1933 159.091 26.3011 159.05 28.6145V30.0334C159.07 31.915 159.338 32.2851 160.129 32.2954C160.304 32.2954 160.664 32.2131 160.942 32.1412L161.014 32.1206L161.785 32.8917L158.577 35.4622H158.515L158.505 35.4519ZM149.395 29.581C149.395 31.3803 150.804 32.7375 152.428 32.7375C153.621 32.7375 154.392 32.4805 155.009 32.1103L154.896 26.3217C154.444 26.2497 153.744 26.1469 153.076 26.1469C151.246 26.1572 149.395 27.0722 149.395 29.5913" fill="white"/>
<path d="M182.699 34.999C181.681 34.9578 180.704 34.8756 179.696 34.8756C178.401 34.8756 177.146 34.999 175.83 34.999H175.697V33.9399L175.81 33.9194C176.93 33.652 177.136 33.5081 177.167 32.1406V25.1079C177.167 24.018 177.054 22.7328 176.591 21.7457C176.129 20.7484 175.357 20.0492 173.969 20.0492C173.579 20.0492 172.736 20.1521 172.006 20.4297C171.265 20.7176 170.689 21.1597 170.689 21.8177C170.689 23.3703 170.607 25.6425 170.607 28.8093V32.1406C170.638 33.5903 170.916 33.7651 171.985 33.9194H172.108V35.0092H171.964C170.782 34.9578 169.641 34.8859 168.469 34.8859C167.296 34.8859 166.165 35.0092 165.014 35.0092H164.88V33.9605L164.973 33.9296C166.001 33.5389 166.361 33.4875 166.381 32.1509V28.1718C166.381 25.8276 166.176 23.6273 166.176 22.3215C166.155 21.1905 165.682 20.6045 164.52 20.5839H164.387V19.5249L164.5 19.5043C166.885 19.0622 168.325 18.4556 169.857 17.4891L169.887 17.4685H170.885V17.6125C170.844 18.2088 170.833 18.7846 170.813 19.3809C172.211 18.4864 173.949 17.561 175.625 17.5508C177.66 17.5508 179.11 18.1574 180.046 19.2267C180.971 20.296 181.372 21.7869 181.372 23.545V32.1612C181.403 33.4464 181.619 33.5903 182.74 33.9399L182.843 33.9708V35.0298H182.699V34.999Z" fill="white"/>
<path d="M187.078 33.9503L187.181 33.9195C188.147 33.6522 188.466 33.5699 188.497 32.223V27.1849C188.497 24.2649 188.25 22.6506 187.942 21.8281C187.613 21.0467 187.304 20.8308 186.338 20.656L186.225 20.6354V19.597L186.327 19.5764C188.188 19.1343 190.337 18.3631 191.53 17.5612L191.561 17.5406H192.414H192.548V17.6743C192.548 19.381 192.712 22.9591 192.712 26.2904V32.223C192.733 33.5493 193.257 33.6522 194.193 33.9195L194.296 33.9503V34.9991H194.162C192.928 34.9991 191.715 34.8757 190.502 34.8757C189.412 34.8757 188.312 34.9579 187.212 34.9991H187.068V33.94L187.078 33.9503ZM190.43 10.6724C191.674 10.6724 192.795 11.5772 192.795 12.8829C192.795 14.1887 191.664 15.0935 190.43 15.0935C189.186 15.0935 188.055 14.1887 188.055 12.8829C188.055 11.5772 189.186 10.6826 190.43 10.6724V10.806V10.6724Z" fill="white"/>
<path d="M197.688 26.4965C197.698 22.6202 200.505 17.5513 207.168 17.541C209.183 17.541 211.106 17.9523 212.946 18.5589L213.028 18.5898L213.275 22.7847H213.142V22.6613V22.795H213.275V22.9287H211.939L211.908 22.8361C211.106 20.8003 209.533 19.4329 207.487 19.4329C203.847 19.4329 202.346 22.7436 202.335 26.0441C202.335 29.4062 204.731 33.1385 208.782 33.1385C210.571 33.1385 211.99 32.429 213.111 31.1952L213.172 31.1335L214.17 31.4009L212.864 34.6088L212.802 34.6293C211.167 35.1229 209.44 35.4519 207.158 35.4519C200.495 35.4416 197.688 30.3727 197.678 26.4965" fill="white"/>
<path d="M218.324 34.2487L218.262 34.2076L218.005 30.2182H219.66H219.773L219.794 30.3211C220.195 32.2129 221.727 33.5495 223.485 33.5495C224.935 33.5495 226.199 32.6653 226.199 31.1642C226.241 29.8378 224.215 29.2106 222.097 28.275C220 27.3393 217.83 26.0027 217.83 23.0313C217.83 19.1962 221.017 17.5305 224.39 17.5305C226.169 17.5305 227.886 18.0652 229.592 18.5895L229.695 18.6204L229.52 22.5172H227.978L227.958 22.4144C227.505 20.3786 226.457 19.4429 224.308 19.4326C222.724 19.4429 221.645 20.2655 221.634 21.8592C221.614 23.679 223.547 24.2857 225.593 25.1082C227.618 25.9205 229.726 27 229.726 29.8584C229.726 31.8222 228.965 33.2411 227.752 34.1356C226.539 35.0404 224.894 35.4311 223.135 35.4311C221.686 35.4311 219.609 35.0301 218.344 34.2281" fill="white"/>
<path d="M250.135 34.8763H243.01V33.8892H243.133C244.891 33.6425 245.303 33.1695 245.333 31.4525V23.2065C245.333 18.3329 245.21 13.1714 245.21 9.51113C245.19 8.00999 244.655 7.75295 243.575 7.56788L243.462 7.54731V6.39575H243.606C245.642 6.39575 247.318 6.56026 248.932 6.56026C250.752 6.56026 251.677 6.39575 252.664 6.39575C257.24 6.39575 262.792 8.35957 262.802 13.7678C262.802 17.1916 260.067 19.4331 257.106 20.4715C260.797 21.5614 263.296 23.772 263.296 27.9567C263.296 33.3238 257.939 35.0408 253.487 35.0408C252.376 35.0408 251.276 34.8763 250.156 34.8763M252.634 33.3032C256.057 33.3032 258.052 30.8561 258.062 27.7922C258.062 24.1524 255.852 21.4689 252.017 21.4689C251.369 21.4689 250.752 21.51 249.96 21.51V30.8458C250.012 33.0359 250.114 33.2621 252.634 33.3135M251.657 19.577C255.214 19.5667 257.569 17.4075 257.579 13.9426C257.558 10.4056 255.996 8.16422 251.657 8.14366C251.091 8.14366 250.69 8.15394 250.464 8.24647C250.258 8.33901 250.176 8.45211 250.166 8.82225L249.96 19.505C250.629 19.5462 251.163 19.577 251.657 19.577Z" fill="white"/>
<path d="M279.427 35.4519C277.926 35.2565 276.702 34.5265 276.147 33.5292C274.81 34.506 273.504 35.4519 271.726 35.4519C268.919 35.4519 266.102 33.704 266.102 30.5989C266.102 26.1777 270.317 24.4915 274.039 24.4915C274.656 24.4915 275.283 24.5943 275.818 24.6149C275.797 22.4454 275.612 20.2554 273.031 20.2554C271.068 20.2554 270.132 20.8723 269.124 22.3529L269.083 22.4146H268.035V22.2809V22.4146H267.901V18.3121L267.993 18.2813C269.71 17.7878 271.356 17.541 273.278 17.541C275.098 17.541 276.795 17.7775 278.059 18.5589C279.324 19.33 280.126 20.6564 280.126 22.723C280.126 24.1933 280.003 26.3011 279.961 28.6145V30.0334C279.992 31.915 280.249 32.2851 281.041 32.2954C281.216 32.2954 281.576 32.2131 281.853 32.1412L281.925 32.1206L282.707 32.902L279.488 35.4725H279.427V35.4519ZM270.317 29.581C270.317 31.3803 271.726 32.7375 273.35 32.7375C274.543 32.7375 275.314 32.4805 275.931 32.1103L275.818 26.3217C275.365 26.2394 274.666 26.1469 273.998 26.1469C272.168 26.1572 270.317 27.0722 270.307 29.5913" fill="white"/>
<path d="M302.809 34.9994C301.792 34.9583 300.815 34.876 299.807 34.876C298.512 34.876 297.257 34.9994 295.941 34.9994H295.808V33.9404L295.91 33.9198C297.031 33.6422 297.237 33.5086 297.268 32.1411V25.1083C297.268 24.0185 297.154 22.7332 296.692 21.7462C296.229 20.7591 295.458 20.0497 294.07 20.0497C293.679 20.0497 292.836 20.1525 292.106 20.4301C291.366 20.718 290.79 21.1601 290.79 21.8182C290.79 23.3707 290.708 25.643 290.708 28.8098V32.1411C290.739 33.5908 291.026 33.7656 292.096 33.9198H292.219V35.0097H292.075C290.893 34.9583 289.752 34.8863 288.59 34.8863C287.428 34.8863 286.287 35.0097 285.135 35.0097H285.001V33.961L285.094 33.9301C286.122 33.5394 286.482 33.4983 286.502 32.1514V28.1723C286.502 25.8178 286.297 23.6278 286.297 22.322C286.276 21.191 285.803 20.6049 284.641 20.5946H284.508V19.5356L284.621 19.515C287.006 19.0729 288.446 18.4663 289.978 17.4998L290.009 17.4792H291.006V17.6232C290.965 18.2195 290.965 18.7953 290.934 19.3917C292.332 18.4971 294.08 17.5718 295.746 17.5615C297.782 17.5615 299.231 18.1681 300.167 19.2374C301.092 20.3067 301.493 21.7976 301.493 23.5558V32.1719C301.524 33.4571 301.73 33.6011 302.861 33.9507L302.964 33.9815V35.0405H302.82L302.809 34.9994Z" fill="white"/>
<path d="M305.771 33.9398L305.884 33.9192C307.046 33.7136 307.303 33.0864 307.314 32.2227V19.0517C307.314 16.6972 307.108 13.6538 306.995 12.1115C306.913 10.487 306.018 9.5925 305.093 9.60278H304.959V8.43066L305.062 8.39981C307.077 7.87544 308.979 7.02205 310.419 5.94247L310.46 5.91162H311.539V24.8712L314.644 21.8073C315.488 20.9642 315.662 20.3987 315.662 19.9977C315.662 19.6687 315.323 19.1957 315.015 19.062L314.932 19.0312V17.9824H315.076C316.166 18.075 317.307 18.1161 318.397 18.1161C319.405 18.1161 320.423 18.075 321.43 17.9927H321.574V19.0415L321.472 19.0723C320.042 19.4733 318.716 20.3884 317.75 21.396L314.706 24.5936L320.762 31.6983C321.266 32.2947 322.736 33.5902 323.908 33.9295L324.001 33.9603V35.0194H323.857C322.675 34.968 321.502 34.8857 320.33 34.8857C318.952 34.8857 317.575 35.0091 316.187 35.0091H316.053V33.9295H316.187C316.464 33.9295 316.69 33.6724 316.701 33.3331C316.711 32.963 316.238 32.0171 315.56 31.2665L311.529 26.8453V32.1507C311.55 33.3434 311.868 33.7136 312.804 33.9295L312.917 33.9501V35.0091H312.783C311.55 35.0091 310.377 34.8857 309.164 34.8857C308.074 34.8857 307.015 34.9268 305.925 35.0091H305.782V33.9501L305.771 33.9398ZM323.867 34.8651V34.7315V34.8651Z" fill="white"/>
<path d="M26.2802 2.29284C25.3652 2.29284 24.4501 2.58073 23.6481 3.13594C23.3911 2.52932 23.0106 1.96382 22.5274 1.48058C21.5712 0.524371 20.3579 0 19.1241 0C18.0343 0 16.9444 0.411271 16.0396 1.18241C15.5563 1.57311 14.8675 2.23115 13.9113 3.18735L7.48514 9.61347C7.43373 9.61347 7.26922 9.61347 7.26922 9.61347C5.984 9.61347 4.7399 10.1687 3.7837 11.1146C2.82749 12.0708 2.30312 13.2841 2.30312 14.5282C2.30312 15.4432 2.59101 16.3583 3.13594 17.1603C2.52932 17.4173 1.9741 17.7978 1.48058 18.281C0.524371 19.2269 0 20.4402 0 21.674C0 22.7639 0.411271 23.8537 1.17212 24.7585C1.56283 25.2418 2.22087 25.9307 3.17707 26.8972L9.4284 33.1485C9.4284 33.2821 9.41812 33.4158 9.41812 33.5598V33.642C9.41812 34.9272 9.97333 36.1713 10.9193 37.1172C11.8755 38.0735 13.0887 38.5978 14.3225 38.5978C15.2376 38.5978 16.1527 38.3099 16.9547 37.765C17.2117 38.3716 17.5921 38.9371 18.0754 39.4204C19.0316 40.3766 20.2448 40.9009 21.4787 40.9009C22.5685 40.9009 23.6584 40.4897 24.5735 39.7288C25.0464 39.3381 25.7456 38.6801 26.7121 37.7239L33.0559 31.38L33.1382 31.2978C33.1896 31.2978 33.241 31.2978 33.2821 31.2978H33.3644C34.6496 31.2978 35.8937 30.7425 36.8396 29.7966C37.7958 28.8404 38.3202 27.6272 38.3202 26.3831C38.3202 25.468 38.0323 24.5632 37.4771 23.7509C38.0837 23.4939 38.6492 23.1135 39.1325 22.6302C40.0887 21.674 40.6131 20.4505 40.6131 19.2269C40.6131 18.1371 40.2018 17.0472 39.4307 16.1321C39.0399 15.6489 38.3819 14.96 37.4257 14.0038L31.1744 7.75247C31.1744 7.6188 31.1847 7.48514 31.1847 7.3412V7.25894C31.1847 5.984 30.6294 4.7399 29.6835 3.7837C28.7273 2.82749 27.5141 2.30312 26.2802 2.30312M18.2399 3.71172C18.8774 3.22848 19.7924 3.45468 20.1729 3.84539C20.6047 4.28751 21.0674 5.08948 20.1626 6.2102C19.6485 6.83739 18.6614 7.86557 17.2528 9.27417L13.1915 13.3355L13.0373 13.1813C12.0708 12.225 11.3614 11.5259 10.7445 11.0118L15.9779 5.77836C17.0472 4.69878 17.7669 4.07159 18.2296 3.71172M8.06092 17.6435C6.99162 16.564 6.31302 15.8854 5.99428 15.3918C5.5316 14.6618 5.74752 13.8598 6.13823 13.4794C7.08415 12.5643 8.00951 13.0579 8.49276 13.4794C8.93487 13.8496 14.6618 19.5354 17.9931 22.8358L15.618 25.2109L14.158 23.7509L8.06092 17.6538V17.6435ZM3.70144 22.548C3.36214 22.0647 3.41355 21.0571 3.87623 20.615C4.32863 20.1934 5.17174 19.7719 6.19992 20.6253C6.82711 21.1496 7.85529 22.1264 9.26389 23.535L13.2738 27.5449L12.9859 27.8328C12.1017 28.7273 11.4436 29.3956 10.9398 29.9817L5.7578 24.81C4.68849 23.7406 4.03046 23.0312 3.69116 22.5582M13.0887 34.6599C12.2456 33.7243 13.0682 32.6344 13.0682 32.6344C13.6028 32.0175 14.7646 30.7528 16.163 29.3442L20.3271 25.1801L22.6508 22.8564L25.0362 25.2418L23.5247 26.7532L17.4276 32.8503C16.3583 33.9196 15.6386 34.5468 15.1862 34.9067C15.1862 34.9067 14.0552 35.7601 13.0784 34.6702M24.594 35.1431C23.5247 36.2125 22.8667 36.8088 22.4143 37.1789C21.8899 37.6108 21.2627 37.508 21.2627 37.508C21.0777 37.4771 20.7384 37.4257 20.3785 37.0761C19.9364 36.6443 19.8953 36.233 19.885 35.904C19.885 35.5544 20.0186 35.1946 20.4196 34.7113C20.9543 34.0944 21.9208 33.0559 23.3294 31.6473L27.3907 27.586L27.5449 27.7403C28.5114 28.6965 29.2208 29.3956 29.8377 29.9097L24.6043 35.1431H24.594ZM26.4345 17.1706L32.5316 23.2677C33.6009 24.337 34.2486 25.0464 34.5982 25.5194C34.9581 26.0232 35.0609 26.8149 34.516 27.4215C34.0841 27.9048 33.642 27.9767 33.313 27.9767C32.984 27.9767 32.583 27.8328 32.0997 27.4318C31.4828 26.8972 30.4444 25.9307 29.0358 24.5221L22.5891 18.0754L24.9745 15.69L26.4345 17.15V17.1706ZM34.8244 16.1116C35.904 17.1809 36.5518 17.8903 36.8911 18.3633C37.3435 18.9905 37.1481 19.9055 36.7574 20.286C36.3153 20.7178 35.431 21.1908 34.3926 20.286C33.7757 19.7513 32.7372 18.7848 31.3286 17.3762L27.3187 13.3663L27.6066 13.0784C28.4908 12.1942 29.1489 11.5259 29.6527 10.9398L34.8244 16.1116ZM27.3187 8.5236C26.7943 9.15079 25.8176 10.179 24.409 11.5876L20.2448 15.7517L17.9212 18.0651L15.5358 15.69L17.0472 14.1786L23.1443 8.08148C24.2136 7.02246 24.9231 6.37471 25.3857 6.02513C25.3857 6.02513 25.3857 6.02513 25.396 6.02513C26.054 5.59329 26.8663 5.74752 27.3084 6.17935C28.059 6.91964 27.9048 7.81416 27.3084 8.5236" fill="#E6A514"/>
</svg>
