<svg width="316" height="40" viewBox="0 0 316 40" fill="none" xmlns="http://www.w3.org/2000/svg">
<g clip-path="url(#clip0_682_1859)">
<path d="M55.1019 15.65L54.4519 27.08C54.4119 27.64 54.2919 28.82 54.2919 29.64C54.3119 31.68 54.8419 32.63 56.4419 32.95L56.5519 32.97V34.08H56.4219C55.2219 34.08 54.0319 33.92 52.8619 33.92C51.6919 33.92 50.5019 34.08 49.3019 34.08H49.1719V32.97L49.2819 32.95C50.9819 32.57 51.4219 31.37 51.7119 28.32L53.7019 5.75H55.2019L67.1719 27.06L77.6519 5.82L77.6919 5.75H79.0819L80.8719 29.23C81.0319 31.22 81.4719 32.89 82.9619 32.94H83.0919V34.08H82.9619C81.5719 34.08 80.2219 33.92 78.8519 33.92C77.4819 33.92 76.1319 34.08 74.7419 34.08H74.6119V32.96H74.7319C75.9419 32.81 76.3819 31.64 76.3919 30.35C76.3919 29.09 76.3119 28.23 76.2319 27.67L75.2319 16.11L66.3319 34.34L55.1319 15.64L55.1019 15.65Z" fill="#651D32"/>
<path d="M85.1016 25.77C85.1016 22 87.8316 17.06 93.3016 17.06C97.4316 17.06 100.672 19.68 100.702 23.95V24.08H89.1916C89.1916 24.21 89.1816 24.34 89.1816 24.48C89.1816 28.12 91.8616 31.28 95.6716 31.29C97.1116 31.29 98.5816 30.9 99.7416 30.05L99.8416 29.98L100.382 30.63L98.1616 33.87H98.1216C97.3216 34.17 96.0016 34.48 94.3216 34.48C87.8416 34.48 85.1116 29.54 85.1016 25.77ZM96.1616 22.24C96.1116 20.03 95.0816 18.69 92.6216 18.67C90.6216 18.67 89.3116 20.32 89.3116 22.21V22.24H96.1616Z" fill="#651D32"/>
<path d="M103.319 25.77C103.319 22 106.059 17.07 112.539 17.06C114.499 17.06 116.369 17.46 118.159 18.05L118.239 18.08L118.479 22.16H118.349V22.04V22.17H118.479V22.3H117.179L117.149 22.21C116.369 20.23 114.839 18.9 112.849 18.9C109.319 18.9 107.849 22.12 107.839 25.33C107.839 28.6 110.169 32.23 114.109 32.23C115.849 32.23 117.229 31.54 118.319 30.34L118.369 30.28L119.349 30.54L118.079 33.66L118.019 33.68C116.429 34.16 114.749 34.48 112.529 34.48C106.049 34.48 103.319 29.54 103.309 25.77" fill="#651D32"/>
<path d="M138.672 34.04C137.532 33.96 136.392 33.92 135.242 33.92C134.092 33.92 133.032 34 131.922 34.04H131.782V33H131.892C132.722 32.86 133.272 32.43 133.282 31.34V28.1C133.282 26.45 133.162 24.79 133.162 23.67C133.152 21.69 132.662 19.5 130.252 19.49C129.132 19.49 128.102 20.04 126.862 20.63V31.34C126.872 32.08 127.192 32.59 128.472 32.99L128.562 33.02V34.04H128.432C127.162 34.04 125.852 33.92 124.592 33.92C123.572 33.92 122.502 34 121.472 34.04H121.342V33.02L121.432 32.99C122.332 32.69 122.742 32.52 122.762 31.34V22.41C122.762 17.83 122.562 12.45 122.562 10.75C122.592 9.87001 121.382 9.54001 120.392 9.50001H120.262V8.47001L120.362 8.45001C121.922 8.10001 124.652 6.95001 125.832 5.80001L125.872 5.76001H126.852V18.53C128.452 17.5 130.342 17.06 132.292 17.06C133.562 17.06 134.832 17.38 135.782 18.28C136.742 19.17 137.362 20.63 137.362 22.85V31.35C137.362 32.07 137.692 32.89 138.672 33H138.792V34.06H138.652L138.672 34.04Z" fill="#651D32"/>
<path d="M154.159 34.48C152.699 34.29 151.509 33.58 150.969 32.61C149.669 33.56 148.399 34.48 146.669 34.48C143.929 34.48 141.199 32.78 141.199 29.76C141.199 25.46 145.299 23.82 148.919 23.82C149.519 23.82 150.129 23.92 150.649 23.94C150.629 21.83 150.449 19.7 147.939 19.7C146.029 19.7 145.119 20.3 144.139 21.74L144.099 21.8H143.079V21.67V21.8H142.949V17.81L143.049 17.78C144.719 17.3 146.319 17.06 148.189 17.06C149.959 17.06 151.609 17.29 152.839 18.05C154.069 18.8 154.849 20.09 154.849 22.1C154.849 23.53 154.729 25.58 154.689 27.83V29.21C154.709 31.04 154.969 31.4 155.739 31.41C155.909 31.41 156.259 31.33 156.529 31.26L156.599 31.24L157.349 31.99L154.229 34.49H154.169L154.159 34.48ZM145.299 28.77C145.299 30.52 146.669 31.84 148.249 31.84C149.409 31.84 150.159 31.59 150.759 31.23L150.649 25.6C150.209 25.53 149.529 25.43 148.879 25.43C147.099 25.44 145.299 26.33 145.299 28.78" fill="#651D32"/>
<path d="M177.693 34.04C176.703 34 175.753 33.92 174.773 33.92C173.513 33.92 172.293 34.04 171.013 34.04H170.883V33.01L170.993 32.99C172.083 32.73 172.283 32.59 172.313 31.26V24.42C172.313 23.36 172.203 22.11 171.753 21.15C171.303 20.18 170.553 19.5 169.203 19.5C168.823 19.5 168.003 19.6 167.293 19.87C166.573 20.15 166.013 20.58 166.013 21.22C166.013 22.73 165.933 24.94 165.933 28.02V31.26C165.963 32.67 166.233 32.84 167.273 32.99H167.393V34.05H167.253C166.103 34 164.993 33.93 163.853 33.93C162.713 33.93 161.613 34.05 160.493 34.05H160.363V33.03L160.453 33C161.453 32.62 161.803 32.57 161.823 31.27V27.4C161.823 25.12 161.623 22.98 161.623 21.71C161.603 20.61 161.143 20.04 160.013 20.02H159.883V18.99L159.993 18.97C162.313 18.54 163.713 17.95 165.203 17.01L165.233 16.99H166.203V17.13C166.163 17.71 166.153 18.27 166.133 18.85C167.493 17.98 169.183 17.07 170.813 17.07C172.793 17.07 174.203 17.66 175.113 18.7C176.013 19.74 176.403 21.19 176.403 22.9V31.28C176.433 32.53 176.643 32.67 177.733 33.01L177.833 33.04V34.07H177.693V34.04Z" fill="#651D32"/>
<path d="M181.947 33.02L182.047 32.99C182.987 32.73 183.297 32.65 183.327 31.34V26.44C183.327 23.6 183.087 22.03 182.787 21.23C182.467 20.47 182.167 20.26 181.227 20.09L181.117 20.07V19.06L181.217 19.04C183.027 18.61 185.117 17.86 186.277 17.08L186.307 17.06H187.137H187.267V17.19C187.267 18.85 187.427 22.33 187.427 25.57V31.34C187.447 32.63 187.957 32.73 188.867 32.99L188.967 33.02V34.04H188.837C187.637 34.04 186.457 33.92 185.277 33.92C184.217 33.92 183.147 34 182.077 34.04H181.937V33.01L181.947 33.02ZM185.207 10.38C186.417 10.38 187.507 11.26 187.507 12.53C187.507 13.8 186.407 14.68 185.207 14.68C183.997 14.68 182.897 13.8 182.897 12.53C182.897 11.26 183.997 10.39 185.207 10.38V10.51V10.38Z" fill="#651D32"/>
<path d="M192.272 25.77C192.282 22 195.012 17.07 201.492 17.06C203.452 17.06 205.322 17.46 207.112 18.05L207.192 18.08L207.432 22.16H207.302V22.04V22.17H207.432V22.3H206.132L206.102 22.21C205.322 20.23 203.792 18.9 201.802 18.9C198.262 18.9 196.802 22.12 196.792 25.33C196.792 28.6 199.122 32.23 203.062 32.23C204.802 32.23 206.182 31.54 207.272 30.34L207.332 30.28L208.302 30.54L207.032 33.66L206.972 33.68C205.382 34.16 203.702 34.48 201.482 34.48C195.002 34.47 192.272 29.54 192.262 25.77" fill="#651D32"/>
<path d="M212.339 33.31L212.279 33.27L212.029 29.39H213.639H213.749L213.769 29.49C214.149 31.33 215.649 32.63 217.359 32.63C218.769 32.63 219.999 31.77 219.999 30.31C220.039 29.02 218.069 28.41 216.009 27.5C213.969 26.59 211.859 25.29 211.859 22.4C211.859 18.67 214.959 17.05 218.239 17.05C219.969 17.05 221.639 17.57 223.299 18.08L223.399 18.11L223.229 21.9H221.729L221.709 21.8C221.269 19.82 220.249 18.91 218.159 18.9C216.619 18.91 215.569 19.71 215.559 21.26C215.539 23.03 217.419 23.62 219.409 24.42C221.379 25.21 223.429 26.26 223.429 29.04C223.429 30.95 222.689 32.33 221.509 33.2C220.329 34.08 218.729 34.46 217.019 34.46C215.609 34.46 213.589 34.07 212.359 33.29" fill="#651D32"/>
<path d="M243.282 33.92H236.352V32.96H236.472C238.182 32.72 238.582 32.26 238.602 30.59V22.57C238.602 17.83 238.482 12.81 238.482 9.24997C238.462 7.78997 237.942 7.53997 236.892 7.35997L236.782 7.33997V6.21997H236.922C238.902 6.21997 240.532 6.37997 242.102 6.37997C243.872 6.37997 244.772 6.21997 245.742 6.21997C250.192 6.21997 255.592 8.12997 255.602 13.39C255.602 16.72 252.942 18.9 250.062 19.91C253.652 20.97 256.092 23.12 256.082 27.19C256.082 32.41 250.872 34.08 246.542 34.08C245.462 34.08 244.392 33.92 243.302 33.92M245.712 32.39C249.042 32.39 250.982 30.01 250.992 27.03C250.992 23.49 248.842 20.88 245.112 20.88C244.482 20.88 243.882 20.92 243.112 20.92V30C243.162 32.13 243.262 32.35 245.712 32.4M244.762 19.04C248.222 19.03 250.512 16.93 250.522 13.56C250.502 10.12 248.982 7.93997 244.762 7.91997C244.212 7.91997 243.822 7.92997 243.602 8.01997C243.402 8.10997 243.322 8.21997 243.312 8.57997L243.112 18.97C243.762 19.01 244.282 19.04 244.762 19.04Z" fill="#651D32"/>
<path d="M271.769 34.48C270.309 34.29 269.119 33.58 268.579 32.61C267.279 33.56 266.009 34.48 264.279 34.48C261.549 34.48 258.809 32.78 258.809 29.76C258.809 25.46 262.909 23.82 266.529 23.82C267.129 23.82 267.739 23.92 268.259 23.94C268.239 21.83 268.059 19.7 265.549 19.7C263.639 19.7 262.729 20.3 261.749 21.74L261.709 21.8H260.689V21.67V21.8H260.559V17.81L260.649 17.78C262.319 17.3 263.919 17.06 265.789 17.06C267.559 17.06 269.209 17.29 270.439 18.05C271.669 18.8 272.449 20.09 272.449 22.1C272.449 23.53 272.329 25.58 272.289 27.83V29.21C272.319 31.04 272.569 31.4 273.339 31.41C273.509 31.41 273.859 31.33 274.129 31.26L274.199 31.24L274.959 32L271.829 34.5H271.769V34.48ZM262.909 28.77C262.909 30.52 264.279 31.84 265.859 31.84C267.019 31.84 267.769 31.59 268.369 31.23L268.259 25.6C267.819 25.52 267.139 25.43 266.489 25.43C264.709 25.44 262.909 26.33 262.899 28.78" fill="#651D32"/>
<path d="M294.511 34.04C293.521 34 292.571 33.92 291.591 33.92C290.331 33.92 289.111 34.04 287.831 34.04H287.701V33.01L287.801 32.99C288.891 32.72 289.091 32.59 289.121 31.26V24.42C289.121 23.36 289.011 22.11 288.561 21.15C288.111 20.19 287.361 19.5 286.011 19.5C285.631 19.5 284.811 19.6 284.101 19.87C283.381 20.15 282.821 20.58 282.821 21.22C282.821 22.73 282.741 24.94 282.741 28.02V31.26C282.771 32.67 283.051 32.84 284.091 32.99H284.211V34.05H284.071C282.921 34 281.811 33.93 280.681 33.93C279.551 33.93 278.441 34.05 277.321 34.05H277.191V33.03L277.281 33C278.281 32.62 278.631 32.58 278.651 31.27V27.4C278.651 25.11 278.451 22.98 278.451 21.71C278.431 20.61 277.971 20.04 276.841 20.03H276.711V19L276.821 18.98C279.141 18.55 280.541 17.96 282.031 17.02L282.061 17H283.031V17.14C282.991 17.72 282.991 18.28 282.961 18.86C284.321 17.99 286.021 17.09 287.641 17.08C289.621 17.08 291.031 17.67 291.941 18.71C292.841 19.75 293.231 21.2 293.231 22.91V31.29C293.261 32.54 293.461 32.68 294.561 33.02L294.661 33.05V34.08H294.521L294.511 34.04Z" fill="#651D32"/>
<path d="M297.392 33.01L297.502 32.99C298.632 32.79 298.882 32.18 298.892 31.34V18.53C298.892 16.24 298.692 13.28 298.582 11.78C298.502 10.2 297.632 9.33 296.732 9.34H296.602V8.2L296.702 8.17C298.662 7.66 300.512 6.83 301.912 5.78L301.952 5.75H303.002V24.19L306.022 21.21C306.842 20.39 307.012 19.84 307.012 19.45C307.012 19.13 306.682 18.67 306.382 18.54L306.302 18.51V17.49H306.442C307.502 17.58 308.612 17.62 309.672 17.62C310.652 17.62 311.642 17.58 312.622 17.5H312.762V18.52L312.662 18.55C311.272 18.94 309.982 19.83 309.042 20.81L306.082 23.92L311.972 30.83C312.462 31.41 313.892 32.67 315.032 33L315.122 33.03V34.06H314.982C313.832 34.01 312.692 33.93 311.552 33.93C310.212 33.93 308.872 34.05 307.522 34.05H307.392V33H307.522C307.792 33 308.012 32.75 308.022 32.42C308.032 32.06 307.572 31.14 306.912 30.41L302.992 26.11V31.27C303.012 32.43 303.322 32.79 304.232 33L304.342 33.02V34.05H304.212C303.012 34.05 301.872 33.93 300.692 33.93C299.632 33.93 298.602 33.97 297.542 34.05H297.402V33.02L297.392 33.01ZM314.992 33.91V33.78V33.91Z" fill="#651D32"/>
<path d="M25.56 2.23C24.67 2.23 23.78 2.51 23 3.05C22.75 2.46 22.38 1.91 21.91 1.44C20.98 0.51 19.8 0 18.6 0C17.54 0 16.48 0.4 15.6 1.15C15.13 1.53 14.46 2.17 13.53 3.1L7.28 9.35C7.23 9.35 7.07 9.35 7.07 9.35C5.82 9.35 4.61 9.89 3.68 10.81C2.75 11.74 2.24 12.92 2.24 14.13C2.24 15.02 2.52 15.91 3.05 16.69C2.46 16.94 1.92 17.31 1.44 17.78C0.51 18.7 0 19.88 0 21.08C0 22.14 0.4 23.2 1.14 24.08C1.52 24.55 2.16 25.22 3.09 26.16L9.17 32.24C9.17 32.37 9.16 32.5 9.16 32.64V32.72C9.16 33.96 9.7 35.18 10.62 36.1C11.55 37.03 12.73 37.54 13.93 37.54C14.82 37.54 15.71 37.26 16.49 36.73C16.74 37.32 17.11 37.87 17.58 38.34C18.51 39.27 19.69 39.78 20.89 39.78C21.95 39.78 23.01 39.39 23.9 38.64C24.36 38.26 25.04 37.62 25.98 36.69L32.15 30.52L32.23 30.44C32.28 30.44 32.33 30.44 32.37 30.44H32.45C33.7 30.44 34.91 29.9 35.83 28.98C36.76 28.05 37.27 26.87 37.27 25.66C37.27 24.77 36.99 23.89 36.45 23.1C37.04 22.85 37.59 22.48 38.06 22.01C38.99 21.08 39.5 19.89 39.5 18.69C39.5 17.63 39.1 16.57 38.35 15.69C37.97 15.22 37.33 14.55 36.4 13.62L30.32 7.54C30.32 7.41 30.33 7.28 30.33 7.14V7.06C30.33 5.82 29.79 4.61 28.87 3.68C27.94 2.75 26.76 2.24 25.56 2.24M17.74 3.61C18.36 3.14 19.25 3.36 19.62 3.74C20.04 4.17 20.49 4.95 19.61 6.04C19.11 6.65 18.15 7.65 16.78 9.02L12.83 12.97L12.68 12.82C11.74 11.89 11.05 11.21 10.45 10.71L15.54 5.62C16.58 4.57 17.28 3.96 17.73 3.61M7.84 17.16C6.8 16.11 6.14 15.45 5.83 14.97C5.38 14.26 5.59 13.48 5.97 13.11C6.89 12.22 7.79 12.7 8.26 13.11C8.69 13.47 14.26 19 17.5 22.21L15.19 24.52L13.77 23.1L7.84 17.17V17.16ZM3.6 21.93C3.27 21.46 3.32 20.48 3.77 20.05C4.21 19.64 5.03 19.23 6.03 20.06C6.64 20.57 7.64 21.52 9.01 22.89L12.91 26.79L12.63 27.07C11.77 27.94 11.13 28.59 10.64 29.16L5.6 24.13C4.56 23.09 3.92 22.4 3.59 21.94M12.73 33.71C11.91 32.8 12.71 31.74 12.71 31.74C13.23 31.14 14.36 29.91 15.72 28.54L19.77 24.49L22.03 22.23L24.35 24.55L22.88 26.02L16.95 31.95C15.9 32.99 15.21 33.6 14.77 33.95C14.77 33.95 13.67 34.78 12.72 33.72M23.92 34.18C22.88 35.22 22.24 35.8 21.8 36.16C21.29 36.58 20.68 36.48 20.68 36.48C20.5 36.45 20.17 36.4 19.82 36.06C19.39 35.64 19.35 35.24 19.35 34.92C19.35 34.58 19.48 34.23 19.87 33.76C20.39 33.16 21.33 32.15 22.7 30.78L26.65 26.83L26.8 26.98C27.74 27.91 28.43 28.59 29.03 29.09L23.94 34.18H23.92ZM25.71 16.7L31.64 22.63C32.68 23.67 33.31 24.36 33.65 24.82C34 25.31 34.1 26.08 33.57 26.67C33.15 27.14 32.72 27.21 32.4 27.21C32.08 27.21 31.69 27.08 31.22 26.68C30.62 26.16 29.61 25.22 28.24 23.85L21.97 17.58L24.29 15.26L25.71 16.68V16.7ZM33.87 15.67C34.92 16.71 35.55 17.4 35.88 17.86C36.32 18.47 36.13 19.36 35.75 19.73C35.32 20.15 34.46 20.61 33.45 19.73C32.85 19.21 31.84 18.27 30.47 16.9L26.57 13L26.85 12.72C27.71 11.86 28.35 11.21 28.84 10.64L33.87 15.67ZM26.57 8.29C26.06 8.9 25.11 9.9 23.74 11.27L19.69 15.32L17.43 17.57L15.11 15.26L16.58 13.79L22.51 7.86C23.55 6.83 24.24 6.2 24.69 5.86C24.69 5.86 24.69 5.86 24.7 5.86C25.34 5.44 26.13 5.59 26.56 6.01C27.29 6.73 27.14 7.6 26.56 8.29" fill="#C88700"/>
</g>
<defs>
<clipPath id="clip0_682_1859">
<rect width="315.13" height="39.77" fill="white"/>
</clipPath>
</defs>
</svg>
