<svg width="21" height="20" viewBox="0 0 21 20" fill="none" xmlns="http://www.w3.org/2000/svg">
<path fill-rule="evenodd" clip-rule="evenodd" d="M17.3133 4.60993C17.3133 5.24823 16.7459 5.8156 16.1076 5.8156C15.4693 5.8156 14.9019 5.24823 14.9019 4.60993C14.9019 3.97163 15.4693 3.40426 16.1076 3.40426C16.8168 3.40426 17.3133 3.97163 17.3133 4.60993ZM10.8594 13.2624C12.7034 13.2624 14.1927 11.773 14.1927 9.92908C14.1927 8.08511 12.7034 6.59574 10.8594 6.59574C9.01541 6.59574 7.52604 8.08511 7.52604 9.92908C7.52604 11.773 9.01541 13.2624 10.8594 13.2624ZM10.8594 4.82269C13.6963 4.82269 15.9658 7.0922 15.9658 9.92908C15.9658 12.766 13.6963 15.0355 10.8594 15.0355C8.0225 15.0355 5.75299 12.766 5.75299 9.92908C5.75299 7.0922 8.0225 4.82269 10.8594 4.82269ZM10.8594 1.77305C8.23527 1.77305 7.88065 1.77305 6.81682 1.84397C5.82392 1.91489 5.32746 2.05674 4.97285 2.19858C4.4764 2.41135 4.19271 2.62411 3.8381 2.9078C3.48349 3.26241 3.27073 3.61702 3.12888 4.04255C2.98704 4.39716 2.84519 4.89362 2.77427 5.88652C2.70335 6.95035 2.70335 7.23404 2.70335 9.92908C2.70335 12.6241 2.70335 12.9078 2.77427 13.9716C2.84519 14.9645 2.98704 15.461 3.12888 15.8156C3.34165 16.3121 3.55441 16.5957 3.8381 16.9504C4.19271 17.305 4.54732 17.5177 4.97285 17.6596C5.32746 17.8014 5.82392 17.9433 6.81682 18.0142C7.88065 18.0851 8.16434 18.0851 10.8594 18.0851C13.5544 18.0851 13.8381 18.0851 14.9019 18.0142C15.8948 17.9433 16.3913 17.8014 16.7459 17.6596C17.2424 17.4468 17.526 17.234 17.8806 16.9504C18.2353 16.5957 18.448 16.2411 18.5899 15.8156C18.7317 15.461 18.8736 14.9645 18.9445 13.9716C19.0154 12.9078 19.0154 12.6241 19.0154 9.92908C19.0154 7.23404 19.0154 6.95035 18.9445 5.88652C18.8736 4.89362 18.7317 4.39716 18.5899 4.04255C18.3771 3.5461 18.1643 3.26241 17.8806 2.9078C17.526 2.55319 17.1714 2.34043 16.7459 2.19858C16.3913 2.05674 15.8948 1.91489 14.9019 1.84397C13.8381 1.77305 13.4835 1.77305 10.8594 1.77305ZM10.8594 0C13.5544 0 13.909 0 14.9729 0.070922C16.0367 0.141844 16.7459 0.283688 17.3842 0.567376C18.0225 0.851064 18.5899 1.13475 19.1572 1.70213C19.7246 2.2695 20.0792 2.83688 20.292 3.47518C20.5048 4.11347 20.7175 4.82269 20.7885 5.88652C20.8594 6.95035 20.8594 7.30496 20.8594 10C20.8594 12.695 20.8594 13.0496 20.7885 14.1135C20.7175 15.1773 20.5757 15.8865 20.292 16.5248C20.0083 17.1631 19.7246 17.7305 19.1572 18.2979C18.5899 18.8652 18.0225 19.2199 17.3842 19.4326C16.7459 19.6454 16.0367 19.8582 14.9729 19.9291C13.909 20 13.5544 20 10.8594 20C8.16434 20 7.80973 20 6.7459 19.9291C5.68207 19.8582 4.97285 19.7163 4.33455 19.4326C3.69626 19.1489 3.12888 18.8652 2.5615 18.2979C1.99413 17.7305 1.63952 17.1631 1.42675 16.5248C1.21399 15.8865 1.00122 15.1773 0.930301 14.1135C0.859379 13.0496 0.859375 12.695 0.859375 10C0.859375 7.30496 0.859379 6.95035 0.930301 5.88652C1.00122 4.82269 1.14307 4.11347 1.42675 3.47518C1.71044 2.83688 1.99413 2.2695 2.5615 1.70213C3.12888 1.13475 3.69626 0.780142 4.33455 0.567376C4.97285 0.35461 5.68207 0.141844 6.7459 0.070922C7.80973 0 8.16434 0 10.8594 0Z" fill="white"/>
</svg>
