<svg width="21" height="14" viewBox="0 0 21 14" fill="none" xmlns="http://www.w3.org/2000/svg">
<path d="M20.3372 2.97872C20.3372 2.97872 20.1717 1.5721 19.5098 0.992908C18.7651 0.165485 17.9377 0.165485 17.524 0.165485C14.7107 0 10.5736 0 10.5736 0C10.5736 0 6.43649 0 3.62325 0.165485C3.20954 0.248227 2.38212 0.248227 1.63744 0.992908C1.05824 1.5721 0.810016 2.97872 0.810016 2.97872C0.810016 2.97872 0.644531 4.63357 0.644531 6.20567V7.69504C0.644531 9.26714 0.810016 10.922 0.810016 10.922C0.810016 10.922 0.975501 12.3286 1.63744 12.9078C2.38212 13.7352 3.37503 13.6525 3.78874 13.7352C5.36084 13.9007 10.5736 13.9007 10.5736 13.9007C10.5736 13.9007 14.7107 13.9007 17.524 13.7352C17.9377 13.6525 18.7651 13.6525 19.5098 12.9078C20.089 12.3286 20.3372 10.922 20.3372 10.922C20.3372 10.922 20.5027 9.34988 20.5027 7.69504V6.20567C20.5027 4.63357 20.3372 2.97872 20.3372 2.97872ZM8.09134 9.92908V3.30969L14.7107 6.61939L8.09134 9.92908Z" fill="white"/>
</svg>
