<svg width="70" height="70" viewBox="0 0 70 70" fill="none" xmlns="http://www.w3.org/2000/svg">
<g clip-path="url(#clip0_1602_7696)">
<path d="M14.5834 49.5833C14.5834 51.1304 15.198 52.6142 16.2919 53.7081C17.3859 54.8021 18.8696 55.4167 20.4167 55.4167C21.9638 55.4167 23.4475 54.8021 24.5415 53.7081C25.6355 52.6142 26.25 51.1304 26.25 49.5833C26.25 48.0362 25.6355 46.5525 24.5415 45.4585C23.4475 44.3646 21.9638 43.75 20.4167 43.75C18.8696 43.75 17.3859 44.3646 16.2919 45.4585C15.198 46.5525 14.5834 48.0362 14.5834 49.5833Z" stroke="#651D32" stroke-width="4.375" stroke-linecap="round" stroke-linejoin="round"/>
<path d="M43.75 49.5833C43.75 51.1304 44.3646 52.6142 45.4585 53.7081C46.5525 54.8021 48.0362 55.4167 49.5833 55.4167C51.1304 55.4167 52.6142 54.8021 53.7081 53.7081C54.8021 52.6142 55.4167 51.1304 55.4167 49.5833C55.4167 48.0362 54.8021 46.5525 53.7081 45.4585C52.6142 44.3646 51.1304 43.75 49.5833 43.75C48.0362 43.75 46.5525 44.3646 45.4585 45.4585C44.3646 46.5525 43.75 48.0362 43.75 49.5833Z" stroke="#651D32" stroke-width="4.375" stroke-linecap="round" stroke-linejoin="round"/>
<path d="M14.5833 49.5833H8.75V32.0833M8.75 32.0833L14.5833 17.5H40.8333L52.5 32.0833M8.75 32.0833H52.5M52.5 32.0833H55.4167C56.9638 32.0833 58.4475 32.6979 59.5415 33.7919C60.6354 34.8858 61.25 36.3696 61.25 37.9167V49.5833H55.4167M43.75 49.5833H26.25M35 32.0833V17.5" stroke="#651D32" stroke-width="4.375" stroke-linecap="round" stroke-linejoin="round"/>
</g>
<defs>
<clipPath id="clip0_1602_7696">
<rect width="70" height="70" fill="white"/>
</clipPath>
</defs>
</svg>
